<svg xmlns="http://www.w3.org/2000/svg" width="225.538" height="32.842" viewBox="0 0 225.538 32.842">
  <g id="hunter-douglas-logo" transform="translate(0 -3.5)">
    <g id="XMLID_111_" transform="translate(193.092 3.5)">
      <path id="XMLID_114_" d="M130.046,19.723A16.3,16.3,0,0,0,113.823,3.5V19.723H97.6a16.3,16.3,0,0,0,16.223,16.223V19.723Z" transform="translate(-97.6 -3.5)" fill="#f08200"/>
      <path id="XMLID_113_" d="M106.2,27.434A16.071,16.071,0,0,0,121.434,12.2C113.322,13.783,107.783,19.124,106.2,27.434Z" transform="translate(-89.186 5.012)" fill="#f08200"/>
      <path id="XMLID_112_" d="M112.834,3.5A16.071,16.071,0,0,0,97.6,18.734C105.909,17.349,111.251,11.809,112.834,3.5Z" transform="translate(-97.6 -3.5)" fill="#f08200"/>
    </g>
    <g id="XMLID_108_" transform="translate(193.092 3.5)">
      <path id="XMLID_110_" d="M113.823,3.5h-.989c-1.583,8.309-6.924,13.849-15.234,15.234v.989h16.223Z" transform="translate(-97.6 -3.5)" fill="#fff"/>
      <path id="XMLID_109_" d="M105.8,11.7V28.121h.989c1.583-8.309,6.924-13.849,15.234-15.234V11.9H105.8Z" transform="translate(-89.577 4.523)" fill="#fff"/>
    </g>
    <path id="Path_1" data-name="Path 1" d="M10.288,14.2H4.946V5.1H0V28.247H4.946V17.96h5.342V28.247h4.946V5.1H10.288ZM31.259,24.884V12.024h-4.55V23.3c0,1.385-.2,2.374-1.583,2.374-.989,0-1.583-.4-1.583-2.374V12.024h-4.55V25.082a3.19,3.19,0,0,0,1.187,2.572,4.727,4.727,0,0,0,2.77.989,6.107,6.107,0,0,0,2.176-.4,3.519,3.519,0,0,0,1.583-1.385v1.583h4.748a24.006,24.006,0,0,1-.2-3.561ZM42.734,11.629a7.112,7.112,0,0,0-2.176.4,5.333,5.333,0,0,0-1.583,1.385V12.024h-4.55V28.247h4.55V17.168c0-1.583.2-2.572,1.583-2.572s1.583.989,1.583,2.572V28.247h4.55V15.19A3.19,3.19,0,0,0,45.5,12.618a3.914,3.914,0,0,0-2.77-.989ZM55,7.276l-4.55,1.978v2.572H48.669v2.968h1.781v9.892c0,.594.2,3.561,4.55,3.561a4.963,4.963,0,0,0,1.978-.2h.4V25.082h-.791a1.2,1.2,0,0,1-1.187-.594,2.933,2.933,0,0,1-.2-1.385V14.794h2.176v-2.77H55V7.276Zm10.486,4.352c-6.133,0-6.727,4.155-6.727,8.309,0,2.176.2,4.55,1.187,6.133s2.77,2.374,5.54,2.374a6.853,6.853,0,0,0,4.748-1.583,6.72,6.72,0,0,0,1.781-4.155H67.266c0,1.781-.594,2.77-1.781,2.77-1.978,0-1.978-2.968-1.978-4.748h8.7c0-2.968,0-5.737-1.781-7.518a7.4,7.4,0,0,0-4.946-1.583Zm1.978,6.529H63.507a10.455,10.455,0,0,1,.2-2.374A1.733,1.733,0,0,1,65.485,14.4a2.859,2.859,0,0,1,1.385.4A6.4,6.4,0,0,1,67.464,18.157ZM79.136,14V12.024H74.784V28.247h4.55v-8.9a5.43,5.43,0,0,1,.4-2.374A3.238,3.238,0,0,1,82.7,15.783h.594V11.629q-3.264,0-4.155,2.374Zm22.158,2.572c0-7.32-1.187-11.475-7.518-11.475H85.665V28.247h7.914c2.374,0,4.155-.594,5.342-1.978,2.374-2.374,2.374-6.727,2.374-9.1v-.594Zm-8.507,7.914H90.413V8.661h2.572c3.363,0,3.363,3.759,3.363,7.914C96.15,22.312,95.755,24.488,92.787,24.488ZM109.8,11.629c-6.133,0-6.727,4.155-6.727,8.309,0,2.176.2,4.55,1.187,6.133s2.77,2.374,5.54,2.374,4.55-.791,5.54-2.374,1.187-3.957,1.187-6.133c0-4.155-.594-8.309-6.727-8.309Zm0,13.849c-1.583,0-1.978-1.187-1.978-5.935,0-3.561.2-4.946,1.978-4.946s1.978,1.583,1.978,4.946C111.978,24.488,111.582,25.478,109.8,25.478Zm21.96-.594V12.024h-4.55V23.3c0,1.385-.2,2.374-1.583,2.374-.989,0-1.583-.4-1.583-2.374V12.024H119.5V25.082a3.19,3.19,0,0,0,1.187,2.572,4.727,4.727,0,0,0,2.77.989,6.107,6.107,0,0,0,2.176-.4,3.519,3.519,0,0,0,1.583-1.385v1.583h4.748a24.008,24.008,0,0,1-.2-3.561ZM142.841,13.8a3.737,3.737,0,0,0-3.561-2.176c-4.748,0-4.748,4.748-4.748,8.111v.4c0,2.374,0,5.144,1.385,6.727a4.35,4.35,0,0,0,3.363,1.187,3.466,3.466,0,0,0,3.363-1.781v3.165c0,1.781-.594,2.572-1.583,2.572a1.54,1.54,0,0,1-1.385-.594,3.065,3.065,0,0,1-.4-1.583h-4.55a4.189,4.189,0,0,0,1.978,3.957,8.314,8.314,0,0,0,4.352.989q3.858,0,5.342-2.374a5.636,5.636,0,0,0,.791-3.165V12.024h-4.352V13.8Zm-1.978,11.277a2.812,2.812,0,0,1-1.187-.4c-.791-.791-.791-2.572-.791-3.759v-.4c0-4.946.4-6.133,1.978-6.133s1.781,2.176,1.781,5.54C142.643,23.5,142.445,25.082,140.862,25.082Zm29.28,2.572c0-.791-.2-1.583-.2-2.374V17.168c0-2.572-.594-5.54-6.529-5.54a7.076,7.076,0,0,0-4.155.989,4.476,4.476,0,0,0-1.781,3.957h4.55c0-1.187.2-2.374,1.583-2.374,1.583,0,1.781.989,1.781,2.374v1.187H164.6c-3.561,0-7.518.4-7.518,5.54,0,4.55,2.77,5.144,4.352,5.144a4.442,4.442,0,0,0,4.155-2.374l.2,2.176h4.353v-.594Zm-5.54-2.572a1.8,1.8,0,0,1-1.385.594c-.594,0-1.583-.2-1.583-2.572,0-2.572,1.385-2.572,3.363-2.77h.4v.594c.2,1.385.2,3.363-.791,4.155Zm15.234-6.924c-1.583-.594-2.968-1.187-2.968-2.374a1.411,1.411,0,0,1,1.385-1.583,1.454,1.454,0,0,1,1.187.4c.4.2.4.989.4,1.978h4.55a3.866,3.866,0,0,0-.989-3.363,6.329,6.329,0,0,0-4.55-1.583,10.072,10.072,0,0,0-4.352.989,3.94,3.94,0,0,0-2.176,3.561c0,2.968,2.374,3.957,4.55,4.946,1.781.791,3.363,1.385,3.363,2.968a1.449,1.449,0,0,1-1.583,1.583c-.791,0-1.385-.2-1.583-.791a4.963,4.963,0,0,1-.2-1.978h-4.55c-.2,1.781.2,3.165,1.187,3.957.989.989,2.572,1.583,5.342,1.583,3.561,0,6.133-1.978,6.133-4.946-.2-2.968-2.968-4.352-5.144-5.342Zm-29.478,10.09h4.55V5.1h-4.55Z" transform="translate(0 1.565)" fill="#5b6770"/>
  </g>
</svg>
